<svg width="202" height="143" viewBox="0 0 202 143" fill="none" xmlns="http://www.w3.org/2000/svg">
<path fill-rule="evenodd" clip-rule="evenodd" d="M101.748 0C137.232 0 176.977 15.4124 176.977 50.7588C176.977 90.9666 142.112 121.362 101.748 121.362C68.0375 121.362 52.4774 84.3384 52.4774 50.7588C52.4774 23.1854 74.067 0 101.748 0Z" fill="#18DC10"/>
<ellipse cx="92.3419" cy="48.5589" rx="16.1013" ry="16.0388" fill="white"/>
<ellipse cx="135.982" cy="64.5977" rx="19.0994" ry="19.0254" fill="white"/>
<ellipse cx="92.3419" cy="48.5589" rx="9.43867" ry="9.40206" fill="#161616"/>
<ellipse cx="135.982" cy="64.5977" rx="11.1043" ry="11.0612" fill="#161616"/>
<path fill-rule="evenodd" clip-rule="evenodd" d="M181.713 109.621C188.996 109.359 194.808 95.6026 199.677 100.962C204.597 106.379 198.207 114.669 196.317 121.704C195.13 126.121 193.882 130.276 190.868 133.741C187.535 137.571 183.643 140.719 178.689 141.965C171.807 143.696 164.771 143.553 159.177 139.229C153.369 134.741 152.292 128.989 152.473 121.704C152.648 114.641 153.454 110.72 159.177 106.484C164.589 102.478 174.956 109.865 181.713 109.621Z" fill="#18DC10"/>
<path fill-rule="evenodd" clip-rule="evenodd" d="M30.2876 58.7692C26.2415 54.6994 30.4811 43.4992 24.7249 44.0274C18.9075 44.5613 18.0136 52.8636 15.2229 58.0099C13.4712 61.2403 11.8983 64.3506 11.7227 68.0051C11.5286 72.0452 12.033 75.9862 14.1962 79.3808C17.202 84.0974 21.3294 87.7964 26.9319 88.2665C32.7488 88.7546 36.539 85.9574 40.4512 81.5838C44.2446 77.3431 45.9424 74.608 44.9847 69.0447C44.079 63.7833 34.0416 62.5451 30.2876 58.7692Z" fill="#18DC10"/>
</svg>
