<svg width="32" height="32" viewBox="0 0 32 32" fill="none" xmlns="http://www.w3.org/2000/svg">
<g id="Grinning face">
<path id="Shape" d="M15.9989 29.9978C25.3333 29.9978 29.9978 23.7303 29.9978 15.9989C29.9978 8.26751 25.3333 2 15.9989 2C6.66443 2 2 8.26751 2 15.9989C2 23.7303 6.66443 29.9978 15.9989 29.9978Z" fill="#FFB02E"/>
<path id="Shape_2" d="M16 25C7 25 7 16 7 16H25C25 16 25 25 16 25Z" fill="#BB1D80"/>
<path id="Shape_3" d="M8 16.5V16H24V16.5C24 17.0523 23.5523 17.5 23 17.5H9C8.44772 17.5 8 17.0523 8 16.5Z" fill="white"/>
<path id="Union" fill-rule="evenodd" clip-rule="evenodd" d="M10.5 14.25C12.8472 14.25 14.75 12.3472 14.75 10C14.75 7.65279 12.8472 5.75 10.5 5.75C8.15279 5.75 6.25 7.65279 6.25 10C6.25 12.3472 8.15279 14.25 10.5 14.25ZM21.5 14.25C23.8472 14.25 25.75 12.3472 25.75 10C25.75 7.65279 23.8472 5.75 21.5 5.75C19.1528 5.75 17.25 7.65279 17.25 10C17.25 12.3472 19.1528 14.25 21.5 14.25Z" fill="white"/>
<g id="Union_2">
<path d="M13.25 10C13.25 11.2426 12.2426 12.25 11 12.25C9.75736 12.25 8.75 11.2426 8.75 10C8.75 8.75736 9.75736 7.75 11 7.75C12.2426 7.75 13.25 8.75736 13.25 10Z" fill="#402A32"/>
<path d="M23.25 10C23.25 11.2426 22.2426 12.25 21 12.25C19.7574 12.25 18.75 11.2426 18.75 10C18.75 8.75736 19.7574 7.75 21 7.75C22.2426 7.75 23.25 8.75736 23.25 10Z" fill="#402A32"/>
</g>
</g>
</svg>
