<svg width="86" height="83" viewBox="0 0 86 83" fill="none" xmlns="http://www.w3.org/2000/svg">
<g id="Group 11">
<path id="Vector" fill-rule="evenodd" clip-rule="evenodd" d="M42.7939 4.19292C50.5512 4.78299 59.3605 0.471755 65.644 5.05889C71.9428 9.65719 70.0714 19.5864 73.485 26.5983C77.0251 33.8699 86.5362 38.7549 85.9763 46.8231C85.4207 54.8296 76.1148 58.8678 70.8268 64.9051C65.5737 70.9025 62.8288 80.675 55.0008 82.1875C47.0826 83.7175 40.6452 75.9354 33.5465 72.1083C27.9979 69.1168 22.894 66.0316 17.8999 62.1852C11.6283 57.3548 2.80674 54.2749 0.543195 46.6892C-1.73479 39.0551 3.71279 31.5044 6.52015 24.0488C9.54233 16.0226 10.0719 5.52199 17.5949 1.404C25.1611 -2.73769 34.1931 3.53869 42.7939 4.19292Z" fill="#FDE816"/>
<circle id="Ellipse 10" cx="59.4182" cy="35.1817" r="8.86058" fill="white"/>
<circle id="Ellipse 8" cx="36.2241" cy="30.4908" r="10.8151" fill="white"/>
<circle id="Ellipse 11" cx="59.4182" cy="35.1817" r="5.0818" fill="#161616"/>
<circle id="Ellipse 9" cx="36.2238" cy="30.4909" r="6.25453" fill="#161616"/>
<rect id="Rectangle 809" x="40.3672" y="45.86" width="15.1151" height="4.9515" rx="2.47575" transform="rotate(9.22267 40.3672 45.86)" fill="#FF7B00"/>
</g>
</svg>
