<svg width="204" height="201" viewBox="0 0 204 201" fill="none" xmlns="http://www.w3.org/2000/svg">
<path fill-rule="evenodd" clip-rule="evenodd" d="M111.991 15.9993C137.483 17.5443 167.552 -1.3905 185.688 16.5892C203.827 34.5709 192.123 65.2791 186.928 90.2864C183.039 109.006 174.179 125.443 160.334 138.63C146.898 151.428 129.443 155.357 111.991 161.665C76.8472 174.368 37.1189 217.878 8.91353 193.364C-18.5971 169.454 25.9984 126.53 29.8643 90.2864C32.9227 61.6134 7.39871 26.4226 28.7837 7.07898C50.2894 -12.3739 83.0459 14.2448 111.991 15.9993Z" fill="#FA4336"/>
<path d="M101.246 84.4817C104.82 87.2994 108.006 89.9105 112.366 91.3653C116.507 92.747 120.617 94.05 124.957 94.5986C129.693 95.1971 134.816 95.4394 139.588 95.1102" stroke="#161616" stroke-width="11.1192" stroke-linecap="round"/>
<circle cx="82.2083" cy="73.0746" r="29.7946" transform="rotate(-3.94628 82.2083 73.0746)" fill="#161616"/>
<path fill-rule="evenodd" clip-rule="evenodd" d="M63.8578 49.5981L87.2897 102.435C86.2968 102.606 85.2859 102.728 84.2592 102.799C82.8423 102.896 81.4418 102.893 80.0646 102.796L58.7422 54.7154C60.2317 52.8129 61.9495 51.0927 63.8578 49.5981Z" fill="white"/>
<circle cx="167.384" cy="97.8887" r="34.0719" transform="rotate(-3.94628 167.384 97.8887)" fill="#161616"/>
<path fill-rule="evenodd" clip-rule="evenodd" d="M145.618 71.6721L172.204 131.62C171.389 131.735 170.563 131.822 169.729 131.88C168.109 131.992 166.507 131.988 164.933 131.877L140.549 76.8938C142.047 74.9808 143.746 73.229 145.618 71.6721Z" fill="white"/>
</svg>
