<svg width="210" height="285" viewBox="0 0 210 285" fill="none" xmlns="http://www.w3.org/2000/svg">
<rect width="210" height="285" rx="30" fill="url(#paint0_linear_141_3518)"/>
<path fill-rule="evenodd" clip-rule="evenodd" d="M119.74 136.861C131.46 139.883 149.653 126.129 154.666 137.145C159.873 148.585 134.745 153.887 133.165 166.357C130.959 183.77 157.413 203.555 144.717 215.676C133.223 226.65 119.422 199 104.396 193.823C91.5606 189.401 75.2909 197.915 65.5933 188.415C54.5817 177.627 49.6285 159.768 54.8195 145.253C59.8335 131.233 75.1353 122.352 89.9021 120.443C101.606 118.93 108.312 133.914 119.74 136.861Z" fill="#3B79FE"/>
<circle cx="86.6666" cy="144.887" r="10.6809" transform="rotate(15.0757 86.6666 144.887)" fill="white"/>
<circle cx="86.6665" cy="144.887" r="6.299" transform="rotate(15.0757 86.6665 144.887)" fill="#161616"/>
<circle cx="96.5913" cy="159.284" r="3.5603" transform="rotate(15.0757 96.5913 159.284)" fill="white"/>
<ellipse cx="105" cy="244" rx="40" ry="12" fill="#4F76BA"/>
<ellipse cx="173" cy="247" rx="6" ry="2" fill="#6E95D8"/>
<ellipse cx="160.5" cy="243.5" rx="4.5" ry="1.5" fill="#6E95D8"/>
<path d="M48.0273 43.984L46.3993 46.316C44.8593 45.392 42.5493 43.082 41.9113 41.168C41.3393 43.28 39.1613 45.832 37.3573 46.8L35.6413 44.578C38.9853 42.598 40.3713 39.716 40.3713 35.448V35.36H36.6093V32.94H47.1473V35.36H43.3633C43.3633 39.606 44.9693 42.334 48.0273 43.984ZM51.5473 31.136V38.528H54.1873V40.904H51.5473V50.738H48.6873V31.136H51.5473ZM71.0665 36.196C71.0665 38.836 68.2725 40.596 64.0265 40.596C59.8025 40.596 56.9645 38.836 56.9645 36.196C56.9645 33.622 59.8025 31.84 64.0265 31.84C68.2725 31.84 71.0665 33.622 71.0665 36.196ZM62.0905 50.716H59.1425V44.292H55.1825V41.982H72.8925V44.292H68.8005V50.716H65.8965V44.292H62.0905V50.716ZM68.0085 36.196C68.0085 35.052 66.4465 34.106 64.0265 34.106C61.5845 34.106 60.0225 35.052 60.0225 36.196C60.0225 37.384 61.5845 38.33 64.0265 38.33C66.4465 38.33 68.0085 37.384 68.0085 36.196ZM89.9256 39.672H84.5136V40.728H91.9276V42.994H74.2176V40.728H81.6316V39.672H76.5056V34.612H86.7576V33.842H76.5276V31.686H89.6616V36.68H79.4756V37.45H89.9256V39.672ZM89.6836 50.496H76.4616V43.742H79.3436V44.996H86.7796V43.764H89.6836V50.496ZM86.7796 48.252V47.174H79.3436V48.252H86.7796ZM101.657 33.424C101.701 35.184 101.481 36.79 101.085 38.286H103.131V31.488H105.859V49.858H103.131V40.684H100.205C98.9948 43.126 97.1028 45.15 94.4848 46.734L92.7468 44.556C96.5968 42.356 98.4008 39.298 98.7968 35.712H93.9128V33.424H101.657ZM109.973 50.738H107.245V31.136H109.973V50.738ZM135.777 48.428H118.067V46.14H135.777V48.428ZM123.457 33.82V31.576H130.343V33.82H123.457ZM134.809 36.988H119.035V34.7H134.809V36.988ZM133.423 41.322C133.423 43.588 130.893 45.194 126.933 45.194C122.995 45.194 120.399 43.588 120.399 41.322C120.399 39.078 122.995 37.494 126.933 37.494C130.893 37.494 133.423 39.078 133.423 41.322ZM130.387 41.322C130.387 40.288 128.869 39.782 126.933 39.782C124.997 39.782 123.457 40.288 123.457 41.322C123.457 42.378 124.997 42.95 126.933 42.95C128.869 42.95 130.387 42.378 130.387 41.322ZM154.812 48.406H137.102V46.074H154.812V48.406ZM153.118 43.368H139.324V36.724H149.708V34.81H139.302V32.478H152.612V39.034H142.228V41.08H153.118V43.368ZM173.848 42.928H156.138V40.596H173.848V42.928ZM171.714 38.924H158.47V31.774H161.418V36.658H171.714V38.924ZM171.802 50.21H158.316V44.402H161.242V47.944H171.802V50.21ZM70.7585 56.104C70.8465 59.14 70.5385 62.528 70.0985 64.64H72.8925V66.928H65.4125V74.738H62.5305V66.928H55.1825V64.64H67.3925C67.7885 62.99 67.9865 60.35 67.9205 58.436H57.2725V56.104H70.7585ZM91.9276 67.368H74.2176V65.102H91.9276V67.368ZM89.7716 74.408H76.3516V68.468H89.7716V74.408ZM86.8236 72.186V70.668H79.2336V72.186H86.8236ZM89.9256 64.046H76.5056V58.942H86.7576V58.172H76.5056V56.016H89.6616V61.01H79.4756V61.846H89.9256V64.046ZM97.2348 61.054C97.2348 62.462 98.3568 63.43 99.7208 63.43C101.085 63.43 102.251 62.462 102.251 61.054C102.251 59.624 101.085 58.678 99.7208 58.678C98.3568 58.678 97.2348 59.624 97.2348 61.054ZM109.951 55.136V74.738H107.047V55.136H109.951ZM94.4188 61.054C94.4188 58.238 96.7068 56.368 99.7208 56.368C102.757 56.368 105.111 58.238 105.111 61.054C105.111 63.892 102.757 65.74 99.7208 65.74C96.7068 65.74 94.4188 63.892 94.4188 61.054ZM106.343 69.876C104.869 70.074 102.031 70.338 100.007 70.426C97.8508 70.536 95.4528 70.624 93.6928 70.602L93.3628 68.05C95.6288 68.05 97.6528 68.05 99.6108 67.984C102.251 67.918 104.649 67.72 106.145 67.588L106.343 69.876ZM130.255 67.874L128.627 70.162C127.065 69.238 124.777 66.928 124.139 64.992C123.567 67.126 121.389 69.678 119.585 70.646L117.869 68.402C121.169 66.466 122.577 63.584 122.599 59.36H118.837V56.94H129.375V59.36H125.613C125.657 63.518 127.219 66.246 130.255 67.874ZM134.369 74.738H131.399V55.136H134.369V74.738ZM149.994 73.858H147.31V68.226H145.924V65.63H147.31V63.738H145.88V62.132H136.948V59.866H146.012V61.164H147.31V55.488H149.994V73.858ZM153.822 74.738H151.05V55.136H153.822V74.738ZM145.528 66.642C145.528 68.952 143.856 70.69 141.392 70.69C138.884 70.69 137.256 68.93 137.256 66.642C137.256 64.288 138.994 62.616 141.392 62.616C143.856 62.616 145.528 64.332 145.528 66.642ZM144.12 58.832H139.148V56.544H144.12V58.832ZM143.086 66.642C143.086 65.586 142.338 64.772 141.392 64.772C140.424 64.772 139.72 65.564 139.72 66.642C139.72 67.742 140.424 68.534 141.392 68.534C142.338 68.534 143.086 67.698 143.086 66.642Z" fill="#3B79FE"/>
<circle cx="161.5" cy="187.5" r="3.5" fill="white"/>
<circle cx="173.5" cy="197.5" r="4.5" fill="white"/>
<defs>
<linearGradient id="paint0_linear_141_3518" x1="105" y1="0" x2="105" y2="285" gradientUnits="userSpaceOnUse">
<stop stop-color="#C1F0F9"/>
<stop offset="1" stop-color="#699AFF"/>
</linearGradient>
</defs>
</svg>
