<svg width="210" height="285" viewBox="0 0 210 285" fill="none" xmlns="http://www.w3.org/2000/svg">
<rect width="210" height="285" rx="30" fill="url(#paint0_linear_141_3524)"/>
<ellipse cx="98.5" cy="250" rx="51.5" ry="16" fill="#BA5512"/>
<path fill-rule="evenodd" clip-rule="evenodd" d="M97.9864 121.204C107.654 122.208 117.361 120.1 126.46 123.516C137.07 127.499 148.882 132.131 154.012 142.236C159.171 152.401 154.723 164.463 152.963 175.726C151.225 186.85 151.224 199.055 143.81 207.528C136.406 215.99 124.7 219.438 113.538 220.784C103.424 222.004 93.9302 217.787 84.2165 214.718C74.7121 211.715 63.5923 210.804 57.3511 203.033C51.1518 195.313 54.3765 184.032 51.8793 174.451C48.954 163.228 38.7703 153.285 41.4424 141.999C44.1487 130.569 54.4155 121.233 65.4397 117.178C75.9115 113.327 86.8886 120.051 97.9864 121.204Z" fill="#FF9122"/>
<ellipse cx="98.7687" cy="197.312" rx="12.6039" ry="9.19033" transform="rotate(-7.80557 98.7687 197.312)" fill="white"/>
<ellipse cx="130.359" cy="189.661" rx="12.6039" ry="9.19033" transform="rotate(146.117 130.359 189.661)" fill="white"/>
<circle cx="100.361" cy="197.978" r="6.56452" transform="rotate(-7.80557 100.361 197.978)" fill="#161616"/>
<circle cx="128.636" cy="189.764" r="6.56452" transform="rotate(146.117 128.636 189.764)" fill="#161616"/>
<circle cx="101.744" cy="194.949" r="1.40043" fill="white"/>
<circle cx="130.277" cy="186.547" r="1.40043" fill="white"/>
<path d="M46.588 50.738H43.816V41.058H42.364V49.836H39.636V31.466H42.364V38.726H43.816V31.136H46.588V50.738ZM33.278 43.962H33.718C34.862 43.962 37.436 43.852 38.69 43.566L38.976 45.766C37.348 46.118 34.224 46.294 32.486 46.294H30.374V33.424H37.81V35.69H33.278V43.962ZM61.0912 43.874L59.4632 46.162C57.9012 45.238 55.6132 42.928 54.9752 40.992C54.4032 43.126 52.2252 45.678 50.4212 46.646L48.7052 44.402C52.0052 42.466 53.4132 39.584 53.4352 35.36H49.6732V32.94H60.2112V35.36H56.4492C56.4932 39.518 58.0552 42.246 61.0912 43.874ZM65.2052 50.738H62.2352V31.136H65.2052V50.738ZM79.7083 44.996L78.0803 47.328C76.3203 46.382 74.4723 44.512 73.7903 42.554C73.1963 44.644 71.3263 46.58 69.4563 47.504L67.7403 45.348C70.7323 43.676 72.0743 41.652 72.2723 38H68.4223V35.69H79.0483V38H75.2203C75.4183 41.696 76.9143 43.588 79.7083 44.996ZM84.2403 50.738H81.2923V41.718H78.1683V39.298H81.2923V31.136H84.2403V50.738ZM70.7763 34.326V32.016H76.6723V34.326H70.7763ZM103.231 50.496H90.2295V43.456H103.231V50.496ZM100.327 48.274V45.656H93.1335V48.274H100.327ZM103.231 42.532H100.305V38.022H97.5115V35.668H100.305V31.136H103.231V42.532ZM97.8855 41.74C96.4775 42.004 93.1775 42.246 91.0435 42.246C89.9215 42.246 88.7775 42.202 87.6335 42.18V36.108H93.4635V34.546H87.6335V32.258H96.4335V38.242H90.5595V39.914C91.0875 39.958 91.6595 39.958 92.2975 39.958C94.1015 39.958 96.1695 39.826 97.6215 39.54C97.7095 40.288 97.8195 40.992 97.8855 41.74ZM129.498 48.296H111.788V46.008H119.202V42.202H113.724V32.588H127.518V42.202H122.084V46.008H129.498V48.296ZM124.614 39.892V34.898H116.628V39.892H124.614ZM148.533 43.104H130.823V40.816H148.533V43.104ZM146.509 50.254H132.979V44.556H135.883V47.988H146.509V50.254ZM146.245 39.386H133.155V32.126H146.223V34.414H136.081V37.098H146.245V39.386ZM171.918 40.794H168.97V37.516H165.626V35.052H168.97V31.136H171.918V40.794ZM172.336 50.584H158.96V45.106H168.97V44.072H158.982V41.784H171.918V47.196H161.908V48.296H172.336V50.584ZM165.846 31.862C165.802 37.428 161.776 40.706 156.694 41.52L155.638 39.122C159.18 38.572 162.04 36.768 162.546 34.26H156.518V31.862H165.846ZM70.1925 74.43H56.8385V68.16H62.0305V66.598H54.6825V64.31H72.3925V66.598H64.9125V68.16H70.1925V74.43ZM70.5005 63.364H56.5085V61.098H59.0165C58.8845 60.394 58.7525 59.69 58.6425 58.964C59.5445 58.854 60.4465 58.744 61.3925 58.656C61.5025 59.492 61.6125 60.306 61.7445 61.098H65.2425C65.3965 60.306 65.5505 59.514 65.6825 58.678L68.4765 58.986C68.3005 59.69 68.1025 60.394 67.9485 61.098H70.5005V63.364ZM70.6765 58.018H56.3765V55.752H70.6765V58.018ZM67.2885 72.186V70.36H59.7425V72.186H67.2885ZM91.4276 66.928H73.7176V64.596H91.4276V66.928ZM89.2936 62.924H76.0496V55.774H78.9976V60.658H89.2936V62.924ZM89.3816 74.21H75.8956V68.402H78.8216V71.944H89.3816V74.21ZM116.242 72.296H98.5321V70.03H105.946V66.51H100.116V64.222H102.888L102.272 59.998L105.154 59.712L105.55 64.222H109.246L109.686 59.734L112.568 60.042L111.82 64.222H114.548V66.51H108.828V70.03H116.242V72.296ZM114.592 58.964H100.094V56.654H114.592V58.964ZM119.459 59.338C119.459 57.182 122.077 55.598 126.411 55.598C130.745 55.598 133.407 57.182 133.407 59.338C133.407 60.504 132.593 61.516 131.185 62.198V64.288H135.277V66.576H117.567V64.288H121.527V62.11C120.185 61.45 119.459 60.46 119.459 59.338ZM133.253 70.998C133.253 73.198 130.679 74.672 126.433 74.672C122.121 74.672 119.591 73.198 119.591 70.998C119.591 68.754 122.121 67.302 126.389 67.302C130.679 67.302 133.253 68.754 133.253 70.998ZM122.517 59.36C122.517 60.306 123.991 60.944 126.411 60.944C128.853 60.944 130.349 60.306 130.349 59.36C130.349 58.436 128.831 57.776 126.411 57.776C123.991 57.776 122.517 58.436 122.517 59.36ZM130.261 71.042C130.261 70.14 128.743 69.59 126.389 69.59C124.101 69.59 122.583 70.14 122.583 71.042C122.583 71.834 124.101 72.428 126.389 72.428C128.743 72.428 130.261 71.834 130.261 71.042ZM126.411 63.078C125.707 63.078 125.069 63.034 124.475 62.946V64.288H128.281V62.968C127.709 63.056 127.071 63.078 126.411 63.078ZM149.934 55.136H152.904V66.532H149.934V55.136ZM152.904 74.518H139.814V67.368H152.904V74.518ZM149.934 72.274V69.568H142.74V72.274H149.934ZM148.636 63.386L147.074 65.696C145.556 65.19 143.51 63.562 142.784 61.934C142.234 63.76 139.946 65.586 138.12 66.224L136.624 63.936C139.55 62.924 141.266 60.658 141.266 57.776V56.258H144.236V57.622C144.236 60.768 146.15 62.55 148.636 63.386Z" fill="#CD7319"/>
<path d="M157.074 202.604L155.136 209.533C154.714 211.042 156.112 212.428 157.618 211.993L162.118 210.692C162.407 210.608 162.674 210.46 162.898 210.259L168.225 205.479C168.923 204.853 169.092 203.826 168.633 203.009L167.429 200.871C167.007 200.12 166.152 199.725 165.307 199.888L158.621 201.18C157.877 201.323 157.279 201.875 157.074 202.604Z" fill="#FF9122"/>
<path d="M70.5415 92.9847L83.0662 101.66C84.2821 102.503 84.1948 104.327 82.9041 105.05L74.3657 109.828C74.066 109.996 73.7282 110.084 73.3848 110.083L61.2083 110.058C60.2937 110.056 59.4969 109.434 59.2732 108.547L57.6263 102.017C57.4235 101.213 57.7381 100.367 58.4172 99.8909L68.2543 92.9914C68.94 92.5104 69.8529 92.5077 70.5415 92.9847Z" fill="#FF9122"/>
<path d="M170.5 205.523L170.396 209.708C170.376 210.492 171.224 210.992 171.901 210.597L174.292 209.197C174.422 209.121 174.533 209.017 174.617 208.892L176.865 205.546C177.127 205.157 177.083 204.638 176.76 204.299L175.728 203.214C175.431 202.902 174.969 202.815 174.579 202.998L171.075 204.642C170.732 204.803 170.51 205.144 170.5 205.523Z" fill="#FF9122"/>
<defs>
<linearGradient id="paint0_linear_141_3524" x1="105" y1="0" x2="105" y2="285" gradientUnits="userSpaceOnUse">
<stop stop-color="#FFEE98"/>
<stop offset="1" stop-color="#C25D26"/>
</linearGradient>
</defs>
</svg>
