<svg width="210" height="285" viewBox="0 0 210 285" fill="none" xmlns="http://www.w3.org/2000/svg">
<rect width="210" height="285" rx="30" fill="url(#paint0_linear_141_3522)"/>
<ellipse cx="104.5" cy="244" rx="32.5" ry="10" fill="#8ABA4F"/>
<path fill-rule="evenodd" clip-rule="evenodd" d="M104.794 128.193C112.551 128.783 121.361 124.472 127.644 129.059C133.943 133.657 132.071 143.586 135.485 150.598C139.025 157.87 148.536 162.755 147.976 170.823C147.421 178.83 138.115 182.868 132.827 188.905C127.574 194.903 124.829 204.675 117.001 206.188C109.083 207.717 102.645 199.935 95.5465 196.108C89.9979 193.117 84.894 190.032 79.8999 186.185C73.6283 181.355 64.8067 178.275 62.5432 170.689C60.2652 163.055 65.7128 155.504 68.5202 148.049C71.5423 140.023 72.0719 129.522 79.5949 125.404C87.1611 121.262 96.1931 127.539 104.794 128.193Z" fill="#FDE816"/>
<circle cx="121.418" cy="159.182" r="8.86058" fill="white"/>
<circle cx="98.2241" cy="154.491" r="10.8151" fill="white"/>
<circle cx="121.418" cy="159.182" r="5.0818" fill="#161616"/>
<circle cx="98.2238" cy="154.491" r="6.25453" fill="#161616"/>
<rect x="102.367" y="169.86" width="15.1151" height="4.9515" rx="2.47575" transform="rotate(9.22267 102.367 169.86)" fill="#FF7B00"/>
<path d="M47.996 37.714H45.268V41.388H42.364V31.136H45.268V35.36H47.996V37.714ZM38.998 42.488H45.268V50.87H42.298V44.644H38.998V42.488ZM39.416 50.342C37.546 50.716 35.83 50.716 33.586 50.716H31.474V45.722H35.17V44.644H31.452V42.488H38.052V47.636H34.312V48.604C35.984 48.604 37.986 48.604 39.262 48.274L39.416 50.342ZM39.658 40.574H30.374V32.302H39.658V40.574ZM36.776 38.264V34.568H33.234V38.264H36.776ZM66.6132 43.17H48.9032V40.86H66.6132V43.17ZM64.5892 50.254H51.1252V44.38H54.0512V47.988H64.5892V50.254ZM64.6772 35.844C64.6772 38.066 62.1472 39.87 57.8132 39.87C53.4352 39.87 50.9272 38.066 50.9272 35.844C50.9272 33.666 53.4352 31.862 57.7692 31.862C62.1472 31.862 64.6772 33.666 64.6772 35.844ZM61.6632 35.888C61.6632 34.832 60.2112 34.04 57.7692 34.04C55.4152 34.04 53.8972 34.832 53.8972 35.888C53.8972 36.9 55.4152 37.67 57.7692 37.67C60.2112 37.67 61.6632 36.9 61.6632 35.888ZM91.8456 40.926H89.0296V50.738H86.1256V31.136H89.0296V38.528H91.8456V40.926ZM83.9476 33.16C83.7936 38.902 81.4616 43.852 75.0816 47.35L73.4536 45.062C77.7216 43.06 80.4716 39.298 80.8676 35.558H74.6416V33.16H83.9476ZM110.463 41.388H92.7528V39.078H110.463V41.388ZM108.769 50.628H94.9528V45.392H105.359V44.578H94.9308V42.29H108.285V47.416H97.8348V48.252H108.769V50.628ZM97.7028 34.964C97.7028 35.668 98.9568 36.196 101.597 36.196C104.193 36.196 105.513 35.668 105.513 34.964C105.513 34.282 104.193 33.71 101.597 33.71C98.9568 33.71 97.7028 34.282 97.7028 34.964ZM94.6448 34.942C94.6448 32.94 96.9768 31.554 101.597 31.554C106.217 31.554 108.571 32.94 108.571 34.942C108.571 36.944 106.217 38.308 101.597 38.308C96.9768 38.308 94.6448 36.944 94.6448 34.942ZM128.809 38.088H117.413V35.8H128.809V38.088ZM120.229 34.656V32.324H126.279V34.656H120.229ZM132.967 31.136V39.1H135.629V41.476H132.967V50.738H130.063V31.136H132.967ZM118.447 42.95C118.447 40.398 120.515 38.748 123.221 38.748C125.905 38.748 128.039 40.42 128.039 42.95C128.039 45.502 125.905 47.174 123.221 47.174C120.515 47.174 118.447 45.48 118.447 42.95ZM121.021 42.95C121.021 44.248 121.989 45.084 123.221 45.084C124.409 45.084 125.443 44.248 125.443 42.95C125.443 41.674 124.453 40.816 123.221 40.816C121.989 40.816 121.021 41.674 121.021 42.95ZM152.178 37.604H139.022V31.488H141.97V35.338H152.178V37.604ZM154.312 41.014H136.602V38.704H154.312V41.014ZM152.684 50.738H138.78V45.392H149.054V44.424H138.78V42.158H151.98V47.416H141.618V48.34H152.684V50.738ZM159.62 37.054C159.62 38.462 160.742 39.43 162.106 39.43C163.47 39.43 164.636 38.462 164.636 37.054C164.636 35.624 163.47 34.678 162.106 34.678C160.742 34.678 159.62 35.624 159.62 37.054ZM172.336 31.136V50.738H169.432V31.136H172.336ZM156.804 37.054C156.804 34.238 159.092 32.368 162.106 32.368C165.142 32.368 167.496 34.238 167.496 37.054C167.496 39.892 165.142 41.74 162.106 41.74C159.092 41.74 156.804 39.892 156.804 37.054ZM168.728 45.876C167.254 46.074 164.416 46.338 162.392 46.426C160.236 46.536 157.838 46.624 156.078 46.602L155.748 44.05C158.014 44.05 160.038 44.05 161.996 43.984C164.636 43.918 167.034 43.72 168.53 43.588L168.728 45.876ZM71.0725 70.976C71.0725 73.286 68.5645 74.716 64.0545 74.716C59.5885 74.716 57.0585 73.286 57.0585 70.976C57.0585 68.666 59.5885 67.236 64.0545 67.236C68.5645 67.236 71.0725 68.666 71.0725 70.976ZM66.1665 64.684L64.9345 66.906C63.2845 66.532 61.2385 65.124 60.6005 63.76C60.0285 65.256 57.9825 66.972 56.0245 67.544C55.5625 66.796 55.1225 66.048 54.6605 65.322C56.9045 64.75 58.7525 63.078 58.9725 61.076H55.3425V58.898H65.6165V61.076H62.0745C62.3385 63.012 64.3845 64.266 66.1665 64.684ZM70.9625 55.136V67.412H68.0145V63.804H65.3085V61.45H68.0145V55.136H70.9625ZM68.0365 70.976C68.0365 70.096 66.6065 69.436 64.0545 69.436C61.5245 69.436 60.0945 70.096 60.0945 70.976C60.0945 71.856 61.5245 72.472 64.0545 72.472C66.6065 72.472 68.0365 71.856 68.0365 70.976ZM57.7185 58.018V55.928H63.4385V58.018H57.7185ZM87.0496 60.306H84.7616V58.062H87.0496V55.136H89.9976V66.576H87.0496V64.244H84.7396V62H87.0496V60.306ZM83.5956 65.63H74.4216V56.676H83.5956V65.63ZM80.7356 63.342V58.942H77.3036V63.342H80.7356ZM90.1516 70.712C90.1516 73.132 87.5556 74.65 83.2216 74.65C78.8876 74.65 76.3136 73.132 76.3136 70.712C76.3136 68.248 78.8876 66.708 83.2216 66.708C87.5556 66.708 90.1516 68.248 90.1516 70.712ZM83.2216 69.04C80.7136 69.04 79.2616 69.7 79.2616 70.712C79.2616 71.724 80.7136 72.362 83.2216 72.362C85.7736 72.362 87.2036 71.724 87.2036 70.712C87.2036 69.7 85.7736 69.04 83.2216 69.04ZM104.039 60.856H92.5988V58.634H104.039V60.856ZM103.093 64.882C103.093 66.972 101.179 68.578 98.3628 68.578C95.5468 68.578 93.6328 66.972 93.6328 64.882C93.6328 62.814 95.5248 61.186 98.3628 61.186C101.179 61.186 103.093 62.814 103.093 64.882ZM95.4368 57.82V55.686H101.333V57.82H95.4368ZM108.153 55.136V61.736H110.793V64.112H108.153V69.898H105.271V55.136H108.153ZM108.549 74.408H95.0628V69.194H98.0548V72.098H108.549V74.408ZM96.5148 64.882C96.5148 65.696 97.2628 66.422 98.3628 66.422C99.4848 66.422 100.233 65.696 100.233 64.882C100.233 64.112 99.4848 63.298 98.3628 63.298C97.2628 63.298 96.5148 64.112 96.5148 64.882ZM133.869 74.738H130.943V55.136H133.869V74.738ZM127.951 57.16C127.775 62.88 125.443 67.852 119.085 71.35L117.435 69.062C121.725 67.06 124.475 63.298 124.871 59.536H118.645V57.16H127.951ZM154.73 62.22H152.002V66.598H149.098V55.136H152.002V59.844H154.73V62.22ZM148.152 63.65L146.568 65.916C145.072 65.432 143.026 63.848 142.322 62.198C141.75 64.046 139.506 65.894 137.636 66.51L136.162 64.222C139.11 63.21 140.804 60.944 140.804 58.062V56.302H143.774V57.93C143.774 61.076 145.688 62.792 148.152 63.65ZM152.2 70.712C152.2 73.132 149.582 74.65 145.248 74.65C140.936 74.65 138.34 73.132 138.34 70.712C138.34 68.248 140.936 66.708 145.248 66.708C149.582 66.708 152.2 68.248 152.2 70.712ZM145.248 69.04C142.762 69.04 141.288 69.7 141.288 70.712C141.288 71.724 142.762 72.362 145.248 72.362C147.822 72.362 149.23 71.724 149.23 70.712C149.23 69.7 147.822 69.04 145.248 69.04Z" fill="#FF9122"/>
<path d="M65.5054 135.027C66.1381 133.524 66.6492 131.981 67.3171 130.487C68.1769 128.564 69.2759 126.682 70.6684 125.095C71.2845 124.392 71.9201 123.738 72.6413 123.147C72.861 122.967 73.103 122.789 73.3037 122.588" stroke="#FDE816" stroke-width="3" stroke-linecap="round"/>
<path d="M68.9111 119.956C70.4612 118.406 72.3436 117.172 74.3012 116.193" stroke="#FDE816" stroke-width="3" stroke-linecap="round"/>
<path d="M156.633 171.759C156.512 173.17 156.377 174.164 155.779 175.489C154.743 177.779 153.737 179.987 152.246 182.005C150.593 184.241 148.527 186.106 146.624 188.115" stroke="#FDE816" stroke-width="3" stroke-linecap="round"/>
<path d="M161.271 166.755C162.167 171.084 161.417 175.592 160.017 179.727C159.803 180.357 159.687 181.215 159.318 181.768" stroke="#FDE816" stroke-width="3" stroke-linecap="round"/>
<path d="M165.828 166.335C165.981 166.737 166.074 167.106 166.166 167.519" stroke="#FDE816" stroke-width="3" stroke-linecap="round"/>
<defs>
<linearGradient id="paint0_linear_141_3522" x1="105" y1="0" x2="105" y2="285" gradientUnits="userSpaceOnUse">
<stop stop-color="#FBFFC9"/>
<stop offset="1" stop-color="#E6F936"/>
</linearGradient>
</defs>
</svg>
