<svg width="32" height="32" viewBox="0 0 32 32" fill="none" xmlns="http://www.w3.org/2000/svg">
<g id="Slightly smiling face">
<path id="Shape" d="M15.9989 29.9978C25.3333 29.9978 29.9978 23.7303 29.9978 15.9989C29.9978 8.26751 25.3333 2 15.9989 2C6.66443 2 2 8.26751 2 15.9989C2 23.7303 6.66443 29.9978 15.9989 29.9978Z" fill="#FFB02E"/>
<g id="Shape_2">
<path d="M10.4189 16.2244C12.7417 16.2244 14.6248 14.3414 14.6248 12.0185C14.6248 9.69557 12.7417 7.8125 10.4189 7.8125C8.09597 7.8125 6.21289 9.69557 6.21289 12.0185C6.21289 14.3414 8.09597 16.2244 10.4189 16.2244Z" fill="white"/>
<path d="M21.568 16.3011C23.9121 16.3011 25.8123 14.4009 25.8123 12.0568C25.8123 9.71274 23.9121 7.8125 21.568 7.8125C19.224 7.8125 17.3237 9.71274 17.3237 12.0568C17.3237 14.4009 19.224 16.3011 21.568 16.3011Z" fill="white"/>
</g>
<path id="Union" fill-rule="evenodd" clip-rule="evenodd" d="M11 14C12.1046 14 13 13.1046 13 12C13 10.8954 12.1046 10 11 10C9.89543 10 9 10.8954 9 12C9 13.1046 9.89543 14 11 14ZM21 14C22.1046 14 23 13.1046 23 12C23 10.8954 22.1046 10 21 10C19.8954 10 19 10.8954 19 12C19 13.1046 19.8954 14 21 14Z" fill="#402A32"/>
<path id="Shape_3" fill-rule="evenodd" clip-rule="evenodd" d="M10.4001 18.2001C10.8419 17.8687 11.4687 17.9582 11.8001 18.4001C12.1094 18.8125 13.5118 20.0001 16.0001 20.0001C18.4883 20.0001 19.8907 18.8125 20.2001 18.4001C20.5314 17.9582 21.1582 17.8687 21.6001 18.2001C22.0419 18.5314 22.1314 19.1582 21.8001 19.6001C21.1094 20.5209 19.1118 22.0001 16.0001 22.0001C12.8883 22.0001 10.8907 20.5209 10.2001 19.6001C9.86869 19.1582 9.95823 18.5314 10.4001 18.2001Z" fill="#402A32"/>
</g>
</svg>
